<svg xmlns="http://www.w3.org/2000/svg" viewBox="0 0 1029.54 328.73"><defs><style>.cls-1{fill:#345093;}</style></defs><g id="Слой_2" data-name="Слой 2"><g id="Слой_1-2" data-name="Слой 1"><path class="cls-1" d="M146.48,328.69c-9.49.55-15.8-4.77-20-12.1-2.15-3.8-3.7-8.73-2.24-13.68,1-3.47-.23-5.87-3.07-8.39-5.75-5.09-55.55-31.65-66-37.16-8.47-4.48-16.69-9.46-24.93-14.36-4-2.35-6.33-5.27-6.28-10.68.32-33-.07-66,.34-98.95.09-7.28-2-12-8-16.13S7.44,106.8,7.67,99.3c.12-4.16,2.86-7.24,4.9-10.34,5.49-8.36,10.18-12.88,21.87-11.1,3.8.58,7,2.67,10,4.82,2.24,1.6,4.09,1.57,6.46.12,5.39-3.28,11-6.22,16.45-9.35S78.41,67,84,63.78c4.91-2.85,9.83-5.66,14.74-8.51,5.87-3.41,11.62-7,17.61-10.2,4.49-2.39,8.69-5.28,13.25-7.44,3.84-1.83,7.18-4.42,11-6.32,4.41-2.21,7.42-3.42,12.37.37a24.11,24.11,0,0,0,9,4.56,6.74,6.74,0,0,1,3,1.44c4.49,4.3,10.67,5.72,15.54,9.26,8,5.82,17,9.84,25.44,15a225.25,225.25,0,0,0,22,12.19,90.32,90.32,0,0,1,14.78,9c3.56,2.59,5.72,1.5,8.62-.12,4.84-2.71,9.53-5.48,15.56-5.32a18.86,18.86,0,0,1,14.38,8,31.24,31.24,0,0,1,4.23,8.47c3.34,9.39,1.27,17.12-4.72,22.4-2.39,2.12-4.91,4.59-8.6,4.91-1.6.14-2.55,1.44-2.58,3.2s-.14,3.75-.14,5.62c0,34.48-.15,69,.15,103.45.05,5.1-2.5,7.23-6.11,8.93-5.95,2.83-11.29,6.64-17,9.83s-11.21,6.3-16.79,9.5c-5.15,3-10.22,6-15.39,9-7.95,4.48-15.49,9.65-23.59,13.89-6.58,3.44-12.92,7.36-19.31,11.17-2.49,1.49-2.59,4.09-2.49,6.65.18,4.49.21,8.77-2,13.08C162.51,324.2,155.85,328.44,146.48,328.69Zm116-149.28q0-25.11,0-50.22c0-3.71-1-7-4.85-8.45a23,23,0,0,1-5.42-3c-2.66-1.86-5.73-3.07-9.07-1-3.15,1.92-6.43,3.64-9.62,5.51-5.12,3-10.17,6.12-15.32,9.07-5.68,3.24-11.48,6.28-17.16,9.52-5.25,3-10.32,6.31-15.63,9.2-4.49,2.45-5.39,4-3.83,9,.9,2.86,1.91,5.64,1.7,8.74-.2,2.85-4.69,14.56-2.08,16.9a44,44,0,0,0,11.74,7.66c4.86,2.11,8.24,5.79,12.08,9,.92.78.54,1.87.44,2.82-.07.67-1,.63-1.16.35-2-2.58-5.16-1.38-7.5-2.57a149,149,0,0,1-13.92-7.66c-6.43-4.18-8.67-4.4-13.25,1.4-4.22,5.34-9.89,8.05-15.87,10.4-4.53,1.78-5.71,3.66-4.91,8.35,1.82,10.76,1,56.72,1.24,63.94.22,5.87.28,6.12,5.8,7.89a12.39,12.39,0,0,1,3.09,2c2.92,2,5.53,4,9.68,1.77,3-1.63,6-3.46,9.07-5.08,8.48-4.48,16.77-9.37,24.84-14.56,2.92-1.88,6.4-2.62,9-5s6.28-3.62,9.36-5.44c5.08-3,10.28-5.93,15.42-8.89,5.65-3.26,11-7,16.87-9.94s9.61-7,9.41-14.41C262.21,210.9,262.49,195.15,262.49,179.41ZM31,178.78c0,16.87.05,33.73,0,50.6,0,4,1.14,6.79,4.89,8.83,4.55,2.47,9,5.15,13.54,7.66,7.8,4.32,15.36,9.1,23.12,13.52,5.6,3.19,32.41,19.15,36,20.71,4,1.77,5.83,5.81,9.42,8.13,5.3,3.41,11.27,3.77,16.07-.28a7.32,7.32,0,0,1,2.39-1.72c5.07-1.73,6.44-3.67,6.48-9,.05-5.74-.68-50.31,1.34-59,1.77-7.54.27-10.27-7.05-13.2-7.1-2.83-13.93-6-18.93-12.09-1.34-1.64-3.15-1.53-4.76-.58-5.21,3.08-10.57,5.89-15.79,9-2.92,1.72-5.47,4.31-9.09,4.84a2.45,2.45,0,0,1-3.1-1.94c-.31-1.39-1.23-3,.86-4.17,6.3-3.55,12.63-7.08,18.73-11,5.59-3.56,7.5-3.88,5.87-10.65a36.37,36.37,0,0,1-.23-17.75c.55-2.12.19-4.47.29-6.72a4.87,4.87,0,0,0-1-3.12c-3.25-4.69-8.32-6.85-13.27-8.74a87.14,87.14,0,0,1-9.45-3.71c-8.9-4.68-17.49-10-25.89-15.57-2.28-1.5-4.93-2.24-7-4.14a8.92,8.92,0,0,0-11.9,0,10.81,10.81,0,0,1-4.74,2.1c-6,1.39-6.7,2.18-6.71,8.58Q31,154,31,178.78Zm119.54-64.43h0c0,4.13-.07,8.25,0,12.37.07,3.22,1.5,5.53,4.92,6.07,6.88,1.1,12.54,4.65,17.26,9.42,2.9,2.93,5.65,3.43,9,1.79s6.54-3.49,9.72-5.37c5.11-3,10.1-6.22,15.24-9.18,5.56-3.22,11.25-6.2,16.83-9.37,5.37-3.06,10.6-6.36,16-9.31,2.15-1.16,3.16-2.55,3.15-5,0-3.37-.67-6.8.23-10.07.63-2.28-.3-3.55-1.77-4.85-2.25-2-5.24-2.7-7.62-4.21-5.95-3.81-12.29-6.85-18.46-10.21-4.87-2.66-9.25-6.06-14.32-8.53A61.69,61.69,0,0,1,190.45,61c-4-3.12-9.15-3.42-13.21-6.37-1.78-1.29-3.09-3.37-5.37-3.88-7.35-1.66-12.76-6.8-18.61-10.88-5-3.52-7.16-4.31-11.82-.39-3.78,3.18-8.61,4.65-12.56,7.47-3.64,2.61-8.21,3-11.76,5.77a36.27,36.27,0,0,1-7,4.24C102.44,60.63,95.48,65.57,88,69.63a80,80,0,0,0-7.77,4.31C77,76.17,73.52,78,70.1,80c-5,2.88-10.26,5.49-15.12,8.65a5.58,5.58,0,0,0-2.42,6.56c.93,2.82,1.29,6,.27,8.48-2.19,5.22,1,7.12,4.42,9.22,1,.58,1.94,1.12,2.91,1.67,4.91,2.8,10.14,5.18,14.66,8.51,4.9,3.61,10.23,6.49,15.17,10,5.82,4.2,12.44,7.29,18.67,10.95,4.24,2.5,7.7,2.06,11.35-1.42,5.09-4.87,10.61-9,17.94-9.9,2.21-.27,3.46-1.74,4.09-3.86,1.38-4.73,1.18-9.66,1.15-14.42,0-3.82-.18-7.71-.35-11.56-.12-2.7,1.33-3.71,3.9-3.83s3.89.92,3.81,3.67C150.44,106.61,150.52,110.48,150.52,114.35Zm-4.18,24.71c-17.82-1.65-30.77,16.09-30,30.64,1,18.74,14.93,29.67,30.46,29.28,10.27-.26,20.66-3.56,26.92-13.83,2.15-3.53,3.85-7.71,3.72-10.9C176.58,152.26,165.25,138.66,146.34,139.06ZM30.2,115.82c10.8-.34,15.54-5.92,16-15.84.39-9.41-7.68-15.93-16.07-16.29C22.57,83.37,13.54,92.33,14,99.84,14.41,107.88,20,116.07,30.2,115.82Zm101,190.11c-.14,9.64,7,15.35,15.06,15.73s15.38-7,15.87-15.27-6.21-14.47-14.84-15.1C136.44,290.51,131.41,297.63,131.21,305.93ZM279.55,99.57c0-7.76-6-14.07-13.66-13.78-8.58.32-14.76,4.79-14.95,14.15a14.85,14.85,0,0,0,14.61,14.75C273.34,114.7,280.83,107.37,279.55,99.57Z"/><path class="cls-1" d="M377.47,210.45c-12,0-20.44,0-28.93,0-4,0-4.5-.94-3.65-5,.59-2.82.59-5.65,4.26-6.52,1.22-.29,1.35-1.74,1.28-3.16-.51-9.43-.52-40.19-.52-41.81,0-8.24,0-16.49,0-24.73,0-5.49-.61-6.2-6-7.18a3.08,3.08,0,0,1-2.79-2.62,29.05,29.05,0,0,1-.06-6.72c.2-1.83,1.65-2.62,3.51-2.6,16.74.15,33.52-.87,50.19.56,10.57.91,19.11,6,22.92,16.89,1.8,5.15,1.05,9.92-.74,14.9-1.64,4.58-4.63,8-7.77,11.51-2.27,2.53-1.68,4,1.76,4.83a16.87,16.87,0,0,1,12.48,14.08c.65,6.09,1,12.3-.09,18.31-1.35,7.71-6.18,12.79-13.4,16.13C398.2,212.75,386,209.55,377.47,210.45Zm5.59-12.11c2.37,0,4.75.13,7.12,0,8.79-.59,15.36-5.52,16.85-12.87,2.21-11-5.37-24-18.37-23.69-6.1.13-12.18.46-18.28.69-2.84.11-4.17,1.38-4.19,4.46-.07,9.2,1.86,18.35.29,27.63-.63,3.71,1.42,5.06,5.37,4.56C375.58,198.61,379.31,198.48,383.06,198.34Zm-15.61-60.9h-.24c0,3.24,0,6.48,0,9.72,0,2.18.82,3.78,3.08,3.93,8.42.54,16.88,1.49,24.75-3,5.43-3.08,8.23-8.56,7-14.28-1.55-7.16-6.28-11.48-13-11.59-5.61-.09-11.22.24-16.82.05-3.06-.1-4.54,1.21-4.68,4C367.31,130,367.45,133.71,367.45,137.44Z"/><path class="cls-1" d="M616.82,127v19.49a4.9,4.9,0,0,0,2.52,4.76,22.23,22.23,0,0,1,5.26,4.83c1.32,1.79,2.31,1.65,3.59.44,2.66-2.5,6-3.87,8-6.93,1.17-1.78,2.61-2.94,3.95-4.81,2.66-3.68,6.29-6.64,9.18-10.18a5.47,5.47,0,0,1,4.75-2.28c3.74,0,7.49,0,11.24-.05,2.95-.07,4.49,1.1,4.3,4.2-.09,1.5.06,3,0,4.5-.13,1.73-.88,3.41-2.72,3.57-5.72.48-8.63,4.81-12,8.45-3.55,3.83-6.82,7.94-10.37,11.78-4.35,4.69-4.35,6.94.4,10.93,5.92,5,11.67,10.16,17.46,15.3a50.05,50.05,0,0,0,11.31,8.1,3.67,3.67,0,0,1,2.25,4.52c-.65,3.5-2.49,6.31-5.75,7.21a12.58,12.58,0,0,1-11.24-2.28c-13.73-10.33-25.85-22.46-38.63-33.85-.63-.57-1.32-1.36-2.27-.81-1.12.64-1.14,1.84-1.16,3-.11,6.87.27,13.79-.49,20.59-.63,5.58-2.23,11.37-8.09,14.1-3.07,1.44-6-.72-8.84-1.7-2.33-.81-1-3.11-.73-4.6,4.49-23.29,1.17-46.82,2.18-70.21.18-4.1-.06-8.2.65-12.31,1-5.72-1.39-8.19-7.29-7.85-2.56.14-3.71-.93-3.93-3.32,0-.12,0-.25,0-.38-.61-8.71-.52-8.87,8.19-8.7,5,.1,10,.7,15,.32,2.66-.2,3.07,1.43,3,3.58,0,6.87,0,13.74,0,20.61Z"/><path class="cls-1" d="M719.3,210.59c-9,.62-17.63-1.26-26.23-3.55-3-.8-4.52-2.27-4-5.55.64-4.32,1.21-8.65,1.6-13,.27-3,1.68-4.23,4.64-3.9a15.83,15.83,0,0,0,3,0c3.05-.22,4.18,1.19,4.26,4.21.17,6,.65,6.45,6.73,7a108.92,108.92,0,0,0,17.23,0,21.74,21.74,0,0,0,13.94-6.35c5.85-5.7,3.92-16.29-3.43-19.86-3.84-1.86-8-2.23-12-3.83-2.77-1.11-2.77-1.11-5.71-2.49-2.06-.62-3.38-1.46-5.23-1.73-9.93-1.42-17.32-6.63-22.22-15.28-1.37-2.43-1.36-5.3-1.11-8.06.3-3.23.74-6.44,1.09-9.66a17,17,0,0,1,13-14.91c11.49-2.84,23.13-3,34.91-2.17a58,58,0,0,1,14.93,2.71c2.05.72,2.72,1.73,2.32,3.89a55.08,55.08,0,0,0-1.17,9.62c0,2.82-.92,5.39-3.17,6.27-2.82,1.1-6.37-1.16-6.85-3.22-1.61-7-7.43-6.61-12-7.22a35.09,35.09,0,0,0-23.3,4.81c-5.16,3.15-6.21,11.23-1.61,15.1,5.27,4.43,10.75,7.86,18.4,8.54,10.72.95,21.23,4,29.07,12.65s7.85,25.6-.69,33.82c-9.59,9.22-21.17,12.55-34.13,12.18C720.8,210.57,720.05,210.59,719.3,210.59Z"/><path class="cls-1" d="M513.33,170.8a41.11,41.11,0,0,0,0-6c.93-9.19,3.21-17,8.51-24.12,4.06-5.42,9.88-7.7,16.63-7.72,6.37,0,12.74-.21,19.1-.19s15.16,6.11,18.61,12.29c2.58,4.62,3.43,9.42,5,14.16a11.44,11.44,0,0,1,.52,3.65c0,10.07.46,20.15-2,30.1-1,4-3.32,7-5.81,9.74-5.43,6-12.53,8.35-20.62,8-5-.22-10-.13-15-.13-9.49,0-16.58-4.81-21.16-12.46a29.26,29.26,0,0,1-3.62-14.6c0-4.25,0-8.49,0-12.74Zm33.48,28c5,.64,9.74-.64,13.09-3.93A17.78,17.78,0,0,0,565,181.7c0-7.84,0-15.69.53-23.54.42-5.72-5.95-13.64-11.49-14.91-6.72-1.54-12.5,1.26-18,4.48-3.88,2.26-6.65,5.5-6.84,10.33s-1.95,17.69-1.93,23.57c0,1.43,3.15,10.41,4.42,11.27C536.25,196.05,540.72,199.6,546.81,198.77Z"/><path class="cls-1" d="M465.36,210.49c-5.55.82-11.37-1-16.92-3.69a19.89,19.89,0,0,1-9.62-10c-1.93-4.52-3.51-9.36-3.52-14.46,0-6.86-.41-13.76.13-20.59.73-9.39,3.4-18.24,11.72-23.91a28.51,28.51,0,0,1,12.74-5,65.6,65.6,0,0,1,18.3,0c8.53,1.42,15.47,5.15,20.16,13.07,3.83,6.48,4.86,39.63,2.8,44.55-3,7.14-6.82,13.71-15.35,16.43C479.3,209,473,210.94,465.36,210.49Zm21.81-39H487c-.2-4-.22-8-.63-12-.5-4.82-2.35-9.42-6.53-11.85-4.91-2.85-10.48-4.41-16.32-2.5-4.45,1.45-9.19,3.44-10.25,8.16a79.39,79.39,0,0,0-.85,32.35c1.93,10.13,14.08,17.11,23.95,13.81a4.11,4.11,0,0,0,1.3-.71c6.27-5.41,10.71-11.64,9.52-20.56A52.09,52.09,0,0,1,487.17,171.51Z"/><path class="cls-1" d="M962.41,170c0-3.87-.1-7.74,0-11.61.35-10.6,7.18-19.21,16.91-23.19a40.42,40.42,0,0,1,22-2.27c6.75,1.08,13.63,3.44,19.21,8a11,11,0,0,1,3.37,4.83c2.77,8.53,7,16.76,5.1,26.27-.63,3.12-2.15,4.57-5.21,4.75-4.52.27-8.88-1.11-13.38-1.1-6.24,0-20.72.83-29.05,1.08-4.44.13-5.4,1-4.92,5.33.78,7,4.8,11.35,11.24,13.91,9.84,3.92,19.68,1.7,29.53.33,3.58-.49,8.67,4.75,8.11,8.4-.21,1.32-1.16,1.75-2.26,2.18a61.29,61.29,0,0,1-33.18,3.07c-8.95-1.53-17.48-5.76-22.76-13.68-2.56-3.84-4.71-8.45-4.63-13.52.07-4.25,0-8.49,0-12.74Zm43.65-3.06c1.76-.18,3.37-.29,5-.51,2-.28,2.92-1.54,3.14-3.56a16.85,16.85,0,0,0-9.3-16.82c-13.42-6.42-26.59.82-28.24,15.39-.36,3.2.76,4.4,3.78,4.44C989,166,997.64,165.25,1006.06,166.93Z"/><path class="cls-1" d="M889.4,172.74c-.12,4.18-.25,9-.47,13.91-.31,6.84-3.79,11.86-8,16.57-4,4.48-9.51,6.37-15.27,7a88.74,88.74,0,0,1-18.72.06c-7.59-.75-12.9-4.66-17.93-10.77-6.4-7.78-7.21-16.2-6.75-25.18.35-6.93,1.2-13.88,2-20.76,1-8.83,6.32-15.09,15-18.2,11.48-4.08,22.94-4.44,34.2.31,8.84,3.73,13.68,10.86,15.2,20.28C889.51,161.31,889.39,166.69,889.4,172.74Zm-15.35-.24c-.23-4.23-.48-8.47-.68-12.7A16,16,0,0,0,861,144.86c-8.82-2.15-20.09,1.74-21.65,12.72-.19,1.34-2.09,10-2.09,14,.61,6.07.85,12.21,1.74,18.25a7.56,7.56,0,0,0,4.45,5.66,29.47,29.47,0,0,0,15.07,3.39c6.67-.28,14.71-6.76,14.92-14.08C873.52,180.74,873.83,176.63,874.05,172.5Z"/><path class="cls-1" d="M784.32,172.54c0-7.61,0-14.35,0-21.09,0-5.22-1-6.15-6-6.17s-5.83-.73-5.7-5.88c0-1.12.09-2.24.09-3.37,0-2.45,1.14-3.5,3.65-3.68,7.28-.55,7.22-.64,8.27-7.68a82.8,82.8,0,0,0,.94-9.68c.09-3.28,1.84-4.86,5.17-5.15,10.16-.91,10.77-.85,10.41,9.55-.1,2.75.13,5.51-.05,8.24-.23,3.3,1.48,4.55,4.42,4.66s5.74.15,8.61.14c2.35,0,3.45,1.13,3.46,3.42v3c0,5.32-.65,6-6.1,6.06-1.74,0-3.5,0-5.24,0-3.3.11-5.32,2-5.2,5.15.51,12.37-1.49,24.65-1.18,37a17.67,17.67,0,0,0,3.48,10c1.64,2.35,4.08,1.46,6.18,1.5,3.27.06,6.48,0,7,4.23s-.21,6.6-4.68,7.11c-5.5.62-11-.16-16.47-.25-2.89-.05-6.72-4.72-7.88-7.3C783,192.49,784.62,182,784.32,172.54Z"/><path class="cls-1" d="M906.33,180.14c0-8.49,0-17,0-25.49,0-3.43-.46-6.13-5.05-5.91-2.14.1-4.6-.64-4.89-3.63-.3-3.25-.21-6.46,3.41-7.89,3.87-1.53,8.08-1.53,12.14-2.14a2.28,2.28,0,0,1,2.27,1.09c1.73,2.76,4.09,2.17,6.14.88,8.37-5.22,17.49-5.08,26.8-4.23,2.91.26,4.2,1.55,4.61,4.33.55,3.76.15,7.49,0,11.22a2.86,2.86,0,0,1-2.23,2.7,9,9,0,0,1-9.54-2.82,3.72,3.72,0,0,0-2-1.51c-8.65-2.12-16.15,3.64-16.17,12.51,0,14.74,0,29.49,0,44.23,0,6.32-.82,7-7.15,7.13-8.31.14-8.31.14-8.31-8Z"/><path class="cls-1" d="M176.82,23.1a13.08,13.08,0,0,1-5.61-1.62c-6.67-3.54-13.1-7.48-19.55-11.38a8.91,8.91,0,0,0-9-.27c-5,2.65-9.78,5.74-14.7,8.55-3.62,2.06-7.25,4.12-11,5.86-1.66.77-4,1.06-4.94-1.09-.84-2,.82-3.57,2.44-4.52,7-4.15,14.33-7.87,21.1-12.38,3-2,6.58-3,9.2-5.53a2.32,2.32,0,0,1,3.07-.27c4.33,2.41,8.93,4.46,12.91,7.36,3,2.21,6.48,3.66,9.65,5.52,3,1.73,4.94,4.55,8,6,1.31.6,1.32,2.26,1.15,3.21S177.82,22.9,176.82,23.1Z"/><path class="cls-1" d="M6.25,231.09c0,4.37,0,8.74,0,13.11,0,3.68,1.67,6.07,4.9,8.13,7.8,5,16.29,8.73,23.77,14.23,2,1.5,2,3,1.07,4.74-1.15,2.1-2.82,1-4.19.19C21.7,265.75,11.63,260,1.52,254.21.2,253.46,0,252.35,0,251.05q0-16.85,0-33.7a17.89,17.89,0,0,1,.46-2.56c.34-2.09,2.08-2.47,3.64-2.57,1.78-.11,1.75,1.82,1.78,2.8.18,5.35.09,10.71.09,16.07Z"/><path class="cls-1" d="M287.31,231.63c0,4,0,8,0,12,0,3.36-1.52,5.54-4.46,7.41-7.12,4.53-14.87,8-21.69,13-1.87,1.37-1.84,2.74-1,4.32,1.05,1.92,2.58.89,3.82.18,9.22-5.24,18.41-10.53,27.63-15.77a2.85,2.85,0,0,0,1.37-2.88q0-15.37,0-30.75a15.84,15.84,0,0,0-.42-2.33c-.31-1.91-1.9-2.25-3.32-2.34-1.63-.1-1.6,1.65-1.63,2.55-.16,4.88-.08,9.77-.08,14.66Z"/></g></g></svg>