<svg xmlns="http://www.w3.org/2000/svg" viewBox="0 0 293.01 328.74"><defs><style>.cls-1{fill:#345093;}</style></defs><g id="Слой_2" data-name="Слой 2"><g id="Слой_1-2" data-name="Слой 1"><path class="cls-1" d="M146.48,328.7c-9.49.55-15.8-4.77-20-12.1-2.15-3.8-3.7-8.73-2.24-13.68,1-3.47-.23-5.87-3.07-8.39-5.75-5.09-55.55-31.65-66-37.16-8.47-4.48-16.69-9.46-24.93-14.36-4-2.35-6.33-5.27-6.28-10.68.32-33-.07-66,.34-99,.09-7.28-2-12-8-16.13S7.44,106.81,7.67,99.31c.12-4.16,2.86-7.24,4.9-10.34,5.49-8.36,10.18-12.88,21.87-11.1,3.8.58,7,2.67,10,4.82,2.24,1.6,4.09,1.57,6.46.12,5.39-3.28,11-6.22,16.45-9.35S78.41,67,84,63.79c4.91-2.85,9.83-5.66,14.74-8.51,5.87-3.41,11.62-7,17.61-10.2,4.49-2.39,8.69-5.28,13.25-7.44,3.84-1.83,7.18-4.42,11-6.32C145,29.11,148,27.9,153,31.69a24.05,24.05,0,0,0,9,4.56,6.65,6.65,0,0,1,3,1.44c4.49,4.3,10.67,5.72,15.54,9.26,8,5.82,17,9.84,25.44,15a225.61,225.61,0,0,0,22,12.19,90.31,90.31,0,0,1,14.78,9c3.56,2.59,5.72,1.5,8.62-.12,4.84-2.71,9.53-5.48,15.56-5.32a18.84,18.84,0,0,1,14.38,8,31.25,31.25,0,0,1,4.23,8.47c3.34,9.39,1.27,17.12-4.72,22.4-2.39,2.12-4.91,4.59-8.6,4.91-1.6.14-2.55,1.44-2.58,3.2s-.14,3.75-.14,5.62c0,34.48-.15,69,.15,103.45.05,5.1-2.5,7.23-6.11,8.93-5.95,2.83-11.29,6.64-17,9.83s-11.21,6.3-16.79,9.5c-5.15,3-10.22,6-15.39,9-8,4.48-15.49,9.65-23.59,13.89-6.58,3.44-12.92,7.36-19.31,11.17-2.49,1.49-2.59,4.09-2.49,6.65.18,4.49.21,8.77-2,13.08C162.51,324.21,155.85,328.45,146.48,328.7Zm116-149.28V129.2c0-3.71-1-7-4.85-8.45a23,23,0,0,1-5.42-3c-2.66-1.86-5.73-3.07-9.07-1-3.15,1.92-6.43,3.64-9.62,5.51-5.12,3-10.17,6.12-15.32,9.07-5.68,3.24-11.48,6.28-17.16,9.52-5.25,3-10.32,6.31-15.63,9.2-4.49,2.45-5.39,4-3.83,9,.9,2.86,1.91,5.64,1.7,8.74-.2,2.85-4.69,14.56-2.08,16.9a44.1,44.1,0,0,0,11.74,7.66c4.86,2.11,8.24,5.79,12.08,9,.92.78.54,1.87.44,2.82-.07.67-1,.63-1.16.35-2-2.58-5.16-1.38-7.5-2.57a150.51,150.51,0,0,1-13.92-7.66c-6.43-4.18-8.67-4.4-13.25,1.4-4.22,5.34-9.89,8.05-15.87,10.4-4.53,1.78-5.71,3.66-4.91,8.35,1.82,10.76,1,56.72,1.24,63.94.22,5.87.28,6.12,5.8,7.89a12.31,12.31,0,0,1,3.09,2c2.92,2,5.53,4,9.68,1.77,3-1.63,6-3.46,9.07-5.08,8.48-4.48,16.77-9.37,24.84-14.56,2.92-1.88,6.4-2.62,9-5s6.28-3.62,9.36-5.44c5.08-3,10.28-5.93,15.42-8.89,5.65-3.26,11-7,16.87-9.94s9.61-7,9.41-14.41c-.42-15.81-.14-31.56-.14-47.3ZM31,178.79c0,16.87.05,33.73,0,50.6,0,4,1.14,6.79,4.89,8.83,4.55,2.47,9,5.15,13.54,7.66,7.8,4.32,15.36,9.1,23.12,13.52,5.6,3.19,32.41,19.15,36,20.71,4,1.77,5.83,5.81,9.42,8.13,5.3,3.41,11.27,3.77,16.07-.28a7.26,7.26,0,0,1,2.39-1.72c5.07-1.73,6.44-3.67,6.48-9,.05-5.74-.68-50.31,1.34-59,1.77-7.54.27-10.27-7.05-13.2-7.1-2.83-13.93-6-18.93-12.09-1.34-1.64-3.15-1.53-4.76-.58-5.21,3.08-10.57,5.89-15.79,9-2.92,1.72-5.47,4.31-9.09,4.84a2.45,2.45,0,0,1-3-1.67l-.06-.27c-.31-1.39-1.23-3,.86-4.17,6.3-3.55,12.63-7.08,18.73-11,5.59-3.56,7.5-3.88,5.87-10.65a36.4,36.4,0,0,1-.23-17.75c.55-2.12.19-4.47.29-6.72a4.86,4.86,0,0,0-1-3.12c-3.25-4.69-8.32-6.85-13.27-8.74a86.92,86.92,0,0,1-9.45-3.71,298.35,298.35,0,0,1-25.89-15.57c-2.28-1.5-4.93-2.24-7-4.14a8.9,8.9,0,0,0-11.9,0,10.92,10.92,0,0,1-4.74,2.1c-6,1.39-6.7,2.18-6.71,8.58Q31,154,31,178.79Zm119.54-64.43h0c0,4.13-.07,8.25,0,12.37.07,3.22,1.5,5.53,4.92,6.07,6.88,1.1,12.54,4.65,17.26,9.42,2.9,2.93,5.65,3.43,9,1.79s6.54-3.49,9.72-5.37c5.11-3,10.1-6.22,15.24-9.18,5.56-3.22,11.25-6.2,16.83-9.37,5.37-3.06,10.6-6.36,16-9.31,2.15-1.16,3.16-2.55,3.15-5,0-3.37-.67-6.8.23-10.07.63-2.28-.3-3.55-1.77-4.85-2.25-2-5.24-2.7-7.62-4.21-5.95-3.81-12.29-6.85-18.46-10.21-4.87-2.66-9.25-6.06-14.32-8.53A61.28,61.28,0,0,1,190.45,61c-4-3.12-9.15-3.42-13.21-6.37-1.78-1.29-3.09-3.37-5.37-3.88-7.35-1.66-12.76-6.8-18.61-10.88-5-3.52-7.16-4.31-11.82-.39-3.78,3.18-8.61,4.65-12.56,7.47-3.64,2.61-8.21,3-11.76,5.77a36.68,36.68,0,0,1-7,4.24C102.44,60.64,95.48,65.58,88,69.64A79.52,79.52,0,0,0,80.23,74C77,76.18,73.52,78,70.1,80c-5,2.88-10.26,5.49-15.12,8.65a5.57,5.57,0,0,0-2.42,6.56c.93,2.82,1.29,6,.27,8.48-2.19,5.22,1,7.12,4.42,9.22l2.91,1.67c4.91,2.8,10.14,5.18,14.66,8.51,4.9,3.61,10.23,6.49,15.17,10,5.82,4.2,12.44,7.29,18.67,11,4.24,2.5,7.7,2.06,11.35-1.42,5.09-4.87,10.61-9,17.94-9.9,2.21-.27,3.46-1.74,4.09-3.86,1.38-4.73,1.18-9.66,1.15-14.42,0-3.82-.18-7.71-.35-11.56-.12-2.7,1.33-3.71,3.9-3.83s3.89.92,3.81,3.67c-.11,3.89,0,7.76,0,11.63Zm-4.18,24.71c-17.82-1.65-30.77,16.09-30,30.64,1,18.74,14.93,29.67,30.46,29.28,10.27-.26,20.66-3.56,26.92-13.83,2.15-3.53,3.85-7.71,3.72-10.9-.88-22-12.21-35.59-31.12-35.19ZM30.2,115.83c10.8-.34,15.54-5.92,16-15.84.39-9.41-7.68-15.93-16.07-16.29C22.57,83.38,13.54,92.34,14,99.85,14.41,107.89,20,116.08,30.2,115.83Zm101,190.11c-.14,9.64,7,15.35,15.06,15.73s15.38-7,15.87-15.27-6.21-14.47-14.84-15.1c-10.85-.78-15.88,6.34-16.08,14.64ZM279.55,99.58c0-7.76-6-14.07-13.66-13.78-8.58.32-14.76,4.79-14.95,14.15a14.85,14.85,0,0,0,14.61,14.75C273.34,114.71,280.83,107.38,279.55,99.58Z"/><path class="cls-1" d="M176.82,23.11a13.13,13.13,0,0,1-5.61-1.62C164.54,18,158.11,14,151.66,10.11a8.9,8.9,0,0,0-9-.27c-5,2.65-9.78,5.74-14.7,8.55-3.62,2.06-7.25,4.12-11,5.86-1.66.77-4,1.06-4.94-1.09s.82-3.57,2.44-4.52c7-4.15,14.33-7.87,21.1-12.38,3-2,6.58-3,9.2-5.53a2.32,2.32,0,0,1,3.07-.27c4.33,2.41,8.93,4.46,12.91,7.36,3,2.21,6.48,3.66,9.65,5.52,3,1.73,4.94,4.55,8,6,1.31.6,1.32,2.26,1.15,3.21S177.82,22.91,176.82,23.11Z"/><path class="cls-1" d="M6.25,231.1v13.11c0,3.68,1.67,6.07,4.9,8.13,7.8,5,16.29,8.73,23.77,14.23,2,1.5,2,3,1.07,4.74-1.15,2.1-2.82,1-4.19.19q-15.15-8.61-30.28-17.28A3.14,3.14,0,0,1,0,251.06v-33.7a17,17,0,0,1,.46-2.56c.34-2.09,2.08-2.47,3.64-2.57,1.78-.11,1.75,1.82,1.78,2.8.18,5.35.09,10.71.09,16.07Z"/><path class="cls-1" d="M287.31,231.64v12c0,3.36-1.52,5.54-4.46,7.41-7.12,4.53-14.87,8-21.69,13-1.87,1.37-1.84,2.74-1,4.32,1,1.92,2.58.89,3.82.18,9.22-5.24,18.41-10.53,27.63-15.77A2.86,2.86,0,0,0,293,249.9V219.15a15.16,15.16,0,0,0-.42-2.33c-.31-1.91-1.9-2.25-3.32-2.34-1.63-.1-1.6,1.65-1.63,2.55-.16,4.88-.08,9.77-.08,14.66Z"/></g></g></svg>